<svg xmlns="http://www.w3.org/2000/svg" width="24" height="25" viewBox="0 0 24 25" fill="none">
  <path d="M13.0966 12.5L18.7666 6.83004C18.894 6.68125 18.9606 6.48986 18.953 6.29411C18.9455 6.09836 18.8643 5.91268 18.7258 5.77416C18.5873 5.63564 18.4016 5.55449 18.2059 5.54693C18.0101 5.53937 17.8187 5.60595 17.6699 5.73337L11.9999 11.4034L6.32993 5.7256C6.18114 5.59818 5.98974 5.53159 5.79399 5.53915C5.59825 5.54672 5.41256 5.62786 5.27404 5.76638C5.13552 5.9049 5.05438 6.09058 5.04682 6.28633C5.03926 6.48208 5.10584 6.67347 5.23326 6.82226L10.9033 12.5L5.22548 18.17C5.14406 18.2398 5.07793 18.3256 5.03125 18.4221C4.98457 18.5186 4.95833 18.6237 4.95419 18.7308C4.95006 18.8379 4.9681 18.9447 5.00721 19.0445C5.04631 19.1443 5.10562 19.235 5.18142 19.3108C5.25722 19.3866 5.34787 19.4459 5.44767 19.485C5.54748 19.5241 5.6543 19.5421 5.76141 19.538C5.86853 19.5339 5.97363 19.5076 6.07012 19.4609C6.16662 19.4143 6.25242 19.3481 6.32215 19.2667L11.9999 13.5967L17.6699 19.2667C17.8187 19.3941 18.0101 19.4607 18.2059 19.4531C18.4016 19.4456 18.5873 19.3644 18.7258 19.2259C18.8643 19.0874 18.9455 18.9017 18.953 18.706C18.9606 18.5102 18.894 18.3188 18.7666 18.17L13.0966 12.5Z" fill="#CCCCCC"/>
</svg>