<svg xmlns="http://www.w3.org/2000/svg" width="35" height="35" viewBox="0 0 35 35" fill="none">
<path d="M32.8818 23.7747L21.6964 5.22474C21.2441 4.51718 20.6209 3.93488 19.8844 3.53153C19.1478 3.12817 18.3216 2.91675 17.4818 2.91675C16.642 2.91675 15.8158 3.12817 15.0792 3.53153C14.3427 3.93488 13.7195 4.51718 13.2672 5.22474L2.08179 23.7747C1.68666 24.4334 1.4719 25.1845 1.4591 25.9525C1.4463 26.7205 1.63592 27.4783 2.00888 28.1497C2.44008 28.9055 3.06421 29.5333 3.8175 29.9689C4.5708 30.4045 5.42623 30.6322 6.29638 30.6289H28.6672C29.5316 30.6381 30.3832 30.4192 31.136 29.9941C31.8888 29.5691 32.5161 28.953 32.9547 28.2081C33.3386 27.5296 33.5343 26.7609 33.5215 25.9815C33.5087 25.2021 33.2878 24.4402 32.8818 23.7747ZM17.4818 24.7956C17.1934 24.7956 16.9114 24.71 16.6716 24.5498C16.4318 24.3896 16.2448 24.1618 16.1345 23.8953C16.0241 23.6288 15.9952 23.3356 16.0515 23.0527C16.1078 22.7698 16.2466 22.51 16.4506 22.306C16.6545 22.1021 16.9144 21.9632 17.1973 21.9069C17.4802 21.8507 17.7734 21.8795 18.0399 21.9899C18.3064 22.1003 18.5341 22.2872 18.6944 22.527C18.8546 22.7669 18.9401 23.0488 18.9401 23.3372C18.9401 23.724 18.7865 24.0949 18.513 24.3684C18.2395 24.6419 17.8686 24.7956 17.4818 24.7956ZM18.9401 18.9622C18.9401 19.349 18.7865 19.7199 18.513 19.9934C18.2395 20.2669 17.8686 20.4206 17.4818 20.4206C17.095 20.4206 16.7241 20.2669 16.4506 19.9934C16.1771 19.7199 16.0235 19.349 16.0235 18.9622V13.1289C16.0235 12.7421 16.1771 12.3712 16.4506 12.0977C16.7241 11.8242 17.095 11.6706 17.4818 11.6706C17.8686 11.6706 18.2395 11.8242 18.513 12.0977C18.7865 12.3712 18.9401 12.7421 18.9401 13.1289V18.9622Z" fill="#D44848"/>
</svg>